<svg width="175" height="45" viewBox="0 0 175 45" fill="none" xmlns="http://www.w3.org/2000/svg">
<g clip-path="url(#clip0_23_2)">
<path d="M75.87 13.1445V17.0445H66.9V22.5795H74.37V26.4945H66.9V34.9995H61.8V13.1445H75.87ZM102.45 34.9995H98.5201C98.1338 35.0153 97.7527 34.9074 97.432 34.6915C97.1555 34.4973 96.9481 34.2198 96.84 33.8995L95.55 30.0895H87.24L85.9501 33.8995C85.8323 34.2033 85.6291 34.4666 85.365 34.6575C85.0593 34.8895 84.6836 35.0101 84.3 34.9995H80.34L88.8 13.1445H93.9901L102.45 34.9995ZM88.41 26.6445H94.3801L92.37 20.6595C92.2367 20.2795 92.0841 19.8319 91.9121 19.3165C91.7401 18.8012 91.5694 18.2439 91.4 17.6445C91.24 18.2545 91.0734 18.8212 90.9 19.3445C90.7267 19.8679 90.5667 20.3179 90.42 20.6945L88.41 26.6445ZM115.77 34.9995H110.67V13.1445H115.77V34.9995ZM136.995 25.0065C137.195 25.3872 137.387 25.7825 137.572 26.1925C137.757 26.6025 137.933 27.0232 138.1 27.4545C138.27 27.0139 138.45 26.5859 138.64 26.1705C138.83 25.7552 139.025 25.3522 139.225 24.9615L144.835 13.9095C144.915 13.7475 145.019 13.5982 145.143 13.4665C145.243 13.3647 145.363 13.2853 145.496 13.2335C145.638 13.1815 145.787 13.1561 145.938 13.1585H150.39V34.9995H145.92V22.4295C145.92 21.8195 145.95 21.1595 146.01 20.4495L140.22 31.6845C140.06 32.0158 139.807 32.2937 139.492 32.4845C139.175 32.6677 138.815 32.761 138.449 32.7545H137.759C137.394 32.7608 137.033 32.6675 136.717 32.4845C136.402 32.2937 136.149 32.0158 135.989 31.6845L130.169 20.4345C130.209 20.7845 130.239 21.1322 130.259 21.4775C130.279 21.8229 130.289 22.1405 130.289 22.4305V34.9995H125.82V13.1595H130.267C130.418 13.157 130.568 13.1824 130.71 13.2345C130.843 13.2864 130.963 13.3658 131.063 13.4675C131.187 13.5993 131.29 13.7486 131.37 13.9105L136.995 25.0065ZM174.06 13.1445V17.0445H165.09V22.1445H171.96V25.8945H165.09V31.0995H174.06V34.9995H159.99V13.1445H174.06Z" fill="#121212"/>
<path d="M22.5 0C18.0499 0 13.6998 1.31966 9.99969 3.79199C6.29958 6.26432 3.4157 9.77831 1.71273 13.8896C0.00976098 18.001 -0.43583 22.525 0.432337 26.8895C1.3005 31.2541 3.44343 35.2632 6.59011 38.4099C9.73679 41.5566 13.7459 43.6996 18.1105 44.5677C22.4751 45.4359 26.9991 44.9903 31.1104 43.2874C35.2217 41.5844 38.7358 38.7005 41.2081 35.0004C43.6804 31.3003 45 26.9501 45 22.5C45 16.5326 42.6295 10.8097 38.4099 6.59009C34.1903 2.37052 28.4674 0 22.5 0ZM29.24 22.62C19.395 24.188 6.98701 28.0741 21.334 36.3721C5.23401 31.3081 6.23403 21.7241 30.113 18.4121L29.24 22.62ZM34.701 15.254C11.044 18.278 9.78301 24.484 9.78301 24.484C7.24101 16.719 22.5 13.1921 35.496 11.4191L34.701 15.254Z" fill="#121212"/>
</g>
<defs>
<clipPath id="clip0_23_2">
<rect width="174.06" height="45" fill="white"/>
</clipPath>
</defs>
</svg>
