<svg width="18" height="18" viewBox="0 0 18 18" fill="none" xmlns="http://www.w3.org/2000/svg">
<path d="M9 16.875C13.3492 16.875 16.875 13.3492 16.875 9C16.875 4.65076 13.3492 1.125 9 1.125C4.65076 1.125 1.125 4.65076 1.125 9C1.125 13.3492 4.65076 16.875 9 16.875Z" fill="url(#paint0_linear_130_4)"/>
<path d="M11.9327 11.4084L12.2825 9.18568H10.0942V7.74394C10.0942 7.13571 10.3993 6.54249 11.3795 6.54249H12.375V4.65018C12.375 4.65018 11.4719 4.5 10.6089 4.5C8.80583 4.5 7.62846 5.56478 7.62846 7.4916V9.18568H5.625V11.4084H7.62846V16.7819C8.03064 16.8435 8.44211 16.875 8.86129 16.875C9.28046 16.875 9.69199 16.8435 10.0942 16.7819V11.4084H11.9327Z" fill="white"/>
<defs>
<linearGradient id="paint0_linear_130_4" x1="9" y1="1.125" x2="9" y2="16.8283" gradientUnits="userSpaceOnUse">
<stop stop-color="#18ACFE"/>
<stop offset="1" stop-color="#0163E0"/>
</linearGradient>
</defs>
</svg>
